<?xml version='1.0' encoding='utf-8'?>
<!DOCTYPE svg>
<!-- Generator: Adobe Illustrator 15.1.0, SVG Export Plug-In . SVG Version: 6.00 Build 0)  -->
<svg xmlns="http://www.w3.org/2000/svg" y="0px"  enable-background="new -45.8 -159.3 117.1 232" viewBox="0 0 120.1 232" xml:space="preserve" height="3.20439in" id="Layer_1" xmlns:xml="http://www.w3.org/XML/1998/namespace" width="1.62665in" version="1.1" gorn="0" x="0px">
    <desc >
        <referenceFile >light3.svg</referenceFile>
    </desc>
    <g  transform="translate(45.8,163.3)">
        <g >
            <g >
                <g  id="breadboard" gorn="0.1.0.0.0">
                    <g  id="connector0pin" gorn="0.1.0.0.0.0">
                        <rect y="66.822"  fill="none" height="0.722" width="2.152" x="10.104"/>
                    </g>
                    <g  id="connector1pin" gorn="0.1.0.0.0.1">
                        <rect y="66.822"  fill="none" height="0.722" width="2.154" x="17.303"/>
                    </g>
                    <g  id="connector0leg" gorn="0.1.0.0.0.2">
                        <path  fill="#8C8C8C" d="M11.18,68.549c-0.825,0-1.494-0.669-1.494-1.494V42.44c0-0.825,0.669-1.494,1.494-1.494s1.494,0.669,1.494,1.494v24.615C12.674,67.88,12.005,68.549,11.18,68.549z"/>
                    </g>
                    <g  id="connector1leg" gorn="0.1.0.0.0.3">
                        <path  fill="#8C8C8C" d="M18.381,68.549c-0.825,0-1.494-0.669-1.494-1.494V42.44c0-0.825,0.669-1.494,1.494-1.494s1.494,0.669,1.494,1.494v24.615C19.875,67.88,19.206,68.549,18.381,68.549z"/>
                    </g>
                    <g >
                        <rect y="32.613"  fill="#8C8C8C" height="9.827" width="2.15" x="10.104"/>
                    </g>
                    <g >
                        <path  fill="#8C8C8C" d="M19.457,42.44c0-1.174-1.064-2.104-2.089-2.991c-0.416-0.366-1.198-1.002-1.198-1.425v-5.471h-2.162v5.78c0,1.06,0.947,1.879,1.946,2.748c0.442,0.377,1.349,1.25,1.349,1.771"/>
                    </g>
                    <g  id="light" gorn="0.1.0.0.0.6">
                        <g >
                            <path  fill="#FCC038" d="M14-162.2c-28.6,0.7-56.6,23.8-58.4,52.9c-1.9,30.5,23.7,35.9,30.7,64.5c3.1,12.5,1.9,24.8,2.3,37.3H14V-162.2z"/>
                            <path  fill="#FFE91D" d="M14.2-162.2c28.6,0.7,56.6,23.8,58.4,52.9c1.9,30.5-23.7,35.9-30.7,64.5C38.7-32.2,39.9-20,39.5-7.5H14.2V-162.2z"/>
                        </g>
                        <g >
                            <g >
                                <path  fill="#8E8E8E" d="M-7.6,22.3v19.9c0,6.7,6.8,12.1,15.1,12.1h12.8c8.3,0,15.1-5.4,15.1-12.1V22.3H-7.6z"/>
                                <path  fill="#656565" d="M13.8,22.3H-7.6v19.9c0,6.7,6.8,12.1,15.1,12.1h6.4V22.3z"/>
                            </g>
                            <g >
                                <rect y="22.3"  fill="#747474" height="16.1" width="43" x="-7.6"/>
                                <rect y="22.3"  fill="#4B4B4B" height="16.1" width="21.4" x="-7.6"/>
                            </g>
                            <g >
                                <path  fill="#8E8E8E" d="M-15.8-1.5v19.9c0,6.7,9.4,12.1,21,12.1H23c11.6,0,21-5.4,21-12.1V-1.5H-15.8z"/>
                                <path  fill="#656565" d="M13.8-1.5h-29.7v19.9c0,6.7,9.4,12.1,21,12.1h8.7V-1.5z"/>
                            </g>
                        </g>
                    </g>
                </g>
            </g>
        </g>
    </g>
</svg>
